<svg xmlns="http://www.w3.org/2000/svg" viewBox="0 0 900 520" font-family="-apple-system, BlinkMacSystemFont, 'Segoe UI', sans-serif">
  <defs>
    <filter id="shadow" x="-5%" y="-5%" width="110%" height="110%">
      <feDropShadow dx="0" dy="2" stdDeviation="3" flood-opacity="0.1"/>
    </filter>
    <linearGradient id="blue" x1="0" y1="0" x2="1" y2="1">
      <stop offset="0%" stop-color="#4f8ff7"/>
      <stop offset="100%" stop-color="#3b6fd4"/>
    </linearGradient>
    <linearGradient id="dark" x1="0" y1="0" x2="1" y2="1">
      <stop offset="0%" stop-color="#1a1d27"/>
      <stop offset="100%" stop-color="#232736"/>
    </linearGradient>
    <linearGradient id="green" x1="0" y1="0" x2="1" y2="1">
      <stop offset="0%" stop-color="#34a853"/>
      <stop offset="100%" stop-color="#2d9148"/>
    </linearGradient>
  </defs>

  <!-- Background -->
  <rect width="900" height="520" rx="12" fill="#0f1117"/>

  <!-- Title -->
  <text x="450" y="35" text-anchor="middle" fill="#e4e6ef" font-size="18" font-weight="700">Northstar — System Architecture</text>
  <text x="450" y="52" text-anchor="middle" fill="#8b8fa7" font-size="11">Accessibility Autopilot for the Broken Web</text>

  <!-- ═══ Chrome Extension (Left) ═══ -->
  <rect x="30" y="75" width="260" height="420" rx="10" fill="#1a1d27" stroke="#2d3148" stroke-width="1" filter="url(#shadow)"/>
  <text x="160" y="100" text-anchor="middle" fill="#4f8ff7" font-size="13" font-weight="600">Chrome Extension (MV3)</text>

  <!-- Side Panel -->
  <rect x="50" y="115" width="220" height="60" rx="6" fill="#232736" stroke="#2d3148" stroke-width="1"/>
  <text x="160" y="140" text-anchor="middle" fill="#e4e6ef" font-size="11" font-weight="600">Side Panel UI</text>
  <text x="160" y="156" text-anchor="middle" fill="#8b8fa7" font-size="10">Voice I/O · Transcript · Status</text>

  <!-- Service Worker -->
  <rect x="50" y="185" width="220" height="60" rx="6" fill="#232736" stroke="#2d3148" stroke-width="1"/>
  <text x="160" y="210" text-anchor="middle" fill="#e4e6ef" font-size="11" font-weight="600">Service Worker</text>
  <text x="160" y="226" text-anchor="middle" fill="#8b8fa7" font-size="10">WebSocket · Message Router</text>

  <!-- Content Script -->
  <rect x="50" y="255" width="220" height="80" rx="6" fill="#232736" stroke="#2d3148" stroke-width="1"/>
  <text x="160" y="278" text-anchor="middle" fill="#e4e6ef" font-size="11" font-weight="600">Content Script</text>
  <text x="160" y="294" text-anchor="middle" fill="#8b8fa7" font-size="10">Page Map Extraction</text>
  <text x="160" y="308" text-anchor="middle" fill="#8b8fa7" font-size="10">Action Execution · Overlays</text>
  <text x="160" y="322" text-anchor="middle" fill="#8b8fa7" font-size="10">A11y Issue Detection</text>

  <!-- Tab Capture -->
  <rect x="50" y="345" width="220" height="45" rx="6" fill="#232736" stroke="#2d3148" stroke-width="1"/>
  <text x="160" y="365" text-anchor="middle" fill="#e4e6ef" font-size="11" font-weight="600">Tab Capture</text>
  <text x="160" y="379" text-anchor="middle" fill="#8b8fa7" font-size="10">Screenshot · Visual State</text>

  <!-- User -->
  <rect x="85" y="410" width="150" height="35" rx="17" fill="url(#blue)"/>
  <text x="160" y="432" text-anchor="middle" fill="white" font-size="11" font-weight="600">User (Voice / Text)</text>

  <!-- Confidence Ladder -->
  <rect x="50" y="455" width="220" height="30" rx="6" fill="#232736" stroke="#4f8ff7" stroke-width="1" stroke-dasharray="4,3"/>
  <text x="160" y="474" text-anchor="middle" fill="#4f8ff7" font-size="9">Tier 1→2→3→4 Confidence Ladder</text>

  <!-- ═══ Backend (Center) ═══ -->
  <rect x="320" y="75" width="260" height="320" rx="10" fill="#1a1d27" stroke="#2d3148" stroke-width="1" filter="url(#shadow)"/>
  <text x="450" y="100" text-anchor="middle" fill="#4f8ff7" font-size="13" font-weight="600">Backend — Cloud Run</text>

  <!-- FastAPI -->
  <rect x="340" y="115" width="220" height="45" rx="6" fill="#232736" stroke="#2d3148" stroke-width="1"/>
  <text x="450" y="135" text-anchor="middle" fill="#e4e6ef" font-size="11" font-weight="600">FastAPI + WebSocket</text>
  <text x="450" y="149" text-anchor="middle" fill="#8b8fa7" font-size="10">Session Management</text>

  <!-- Planner -->
  <rect x="340" y="170" width="105" height="45" rx="6" fill="#232736" stroke="#2d3148" stroke-width="1"/>
  <text x="392" y="190" text-anchor="middle" fill="#e4e6ef" font-size="10" font-weight="600">Planner</text>
  <text x="392" y="204" text-anchor="middle" fill="#8b8fa7" font-size="9">Action routing</text>

  <!-- Verifier -->
  <rect x="455" y="170" width="105" height="45" rx="6" fill="#232736" stroke="#2d3148" stroke-width="1"/>
  <text x="507" y="190" text-anchor="middle" fill="#e4e6ef" font-size="10" font-weight="600">Verifier</text>
  <text x="507" y="204" text-anchor="middle" fill="#8b8fa7" font-size="9">Post-action check</text>

  <!-- Page Map -->
  <rect x="455" y="225" width="105" height="45" rx="6" fill="#232736" stroke="#2d3148" stroke-width="1"/>
  <text x="507" y="245" text-anchor="middle" fill="#e4e6ef" font-size="10" font-weight="600">Page Map</text>
  <text x="507" y="259" text-anchor="middle" fill="#8b8fa7" font-size="9">A11y tree builder</text>

  <!-- Live Session -->
  <rect x="340" y="280" width="220" height="45" rx="6" fill="#232736" stroke="#4f8ff7" stroke-width="1"/>
  <text x="450" y="300" text-anchor="middle" fill="#e4e6ef" font-size="11" font-weight="600">Live Session Manager</text>
  <text x="450" y="314" text-anchor="middle" fill="#8b8fa7" font-size="10">Gemini Live API Voice</text>

  <!-- Verification Loop Arrow -->
  <rect x="340" y="340" width="220" height="45" rx="6" fill="#232736" stroke="#4ff78b" stroke-width="1" stroke-dasharray="4,3"/>
  <text x="450" y="358" text-anchor="middle" fill="#4ff78b" font-size="10" font-weight="500">Observe → Plan → Act → Verify</text>
  <text x="450" y="372" text-anchor="middle" fill="#8b8fa7" font-size="9">Continuous verification loop</text>

  <!-- ═══ Google Cloud (Right) ═══ -->
  <rect x="610" y="75" width="260" height="420" rx="10" fill="#1a1d27" stroke="#2d3148" stroke-width="1" filter="url(#shadow)"/>
  <text x="740" y="100" text-anchor="middle" fill="#34a853" font-size="13" font-weight="600">Google Cloud</text>

  <!-- Gemini Live -->
  <rect x="630" y="115" width="220" height="55" rx="6" fill="#232736" stroke="#34a853" stroke-width="1"/>
  <text x="740" y="137" text-anchor="middle" fill="#e4e6ef" font-size="11" font-weight="600">Gemini 2.5 Flash Native Audio</text>
  <text x="740" y="153" text-anchor="middle" fill="#8b8fa7" font-size="10">Live voice · Tool calling</text>

  <!-- Gemini Flash -->
  <rect x="630" y="180" width="220" height="55" rx="6" fill="#232736" stroke="#34a853" stroke-width="1"/>
  <text x="740" y="202" text-anchor="middle" fill="#e4e6ef" font-size="11" font-weight="600">Gemini 2.5 Flash</text>
  <text x="740" y="218" text-anchor="middle" fill="#8b8fa7" font-size="10">Page understanding · Action planning</text>

  <!-- Gemini Pro -->
  <rect x="630" y="245" width="220" height="55" rx="6" fill="#232736" stroke="#34a853" stroke-width="1"/>
  <text x="740" y="267" text-anchor="middle" fill="#e4e6ef" font-size="11" font-weight="600">Gemini 2.5 Pro</text>
  <text x="740" y="283" text-anchor="middle" fill="#8b8fa7" font-size="10">Hard-page recovery · A11y diagnosis</text>

  <!-- Firestore -->
  <rect x="630" y="315" width="105" height="50" rx="6" fill="#232736" stroke="#34a853" stroke-width="1"/>
  <text x="682" y="337" text-anchor="middle" fill="#e4e6ef" font-size="10" font-weight="600">Firestore</text>
  <text x="682" y="351" text-anchor="middle" fill="#8b8fa7" font-size="9">Sessions · Prefs</text>

  <!-- Cloud Logging -->
  <rect x="745" y="315" width="105" height="50" rx="6" fill="#232736" stroke="#34a853" stroke-width="1"/>
  <text x="797" y="337" text-anchor="middle" fill="#e4e6ef" font-size="10" font-weight="600">Cloud Logging</text>
  <text x="797" y="351" text-anchor="middle" fill="#8b8fa7" font-size="9">Observability</text>

  <!-- Cloud Build -->
  <rect x="630" y="380" width="105" height="50" rx="6" fill="#232736" stroke="#34a853" stroke-width="1"/>
  <text x="682" y="402" text-anchor="middle" fill="#e4e6ef" font-size="10" font-weight="600">Cloud Build</text>
  <text x="682" y="416" text-anchor="middle" fill="#8b8fa7" font-size="9">CI/CD</text>

  <!-- Artifact Registry -->
  <rect x="745" y="380" width="105" height="50" rx="6" fill="#232736" stroke="#34a853" stroke-width="1"/>
  <text x="797" y="402" text-anchor="middle" fill="#e4e6ef" font-size="10" font-weight="600">Artifact Reg.</text>
  <text x="797" y="416" text-anchor="middle" fill="#8b8fa7" font-size="9">Container images</text>

  <!-- Cloud Run -->
  <rect x="630" y="445" width="220" height="40" rx="6" fill="url(#green)"/>
  <text x="740" y="470" text-anchor="middle" fill="white" font-size="11" font-weight="600">Cloud Run (Deployed)</text>

  <!-- ═══ Connection arrows ═══ -->
  <!-- Extension → Backend -->
  <line x1="290" y1="215" x2="320" y2="137" stroke="#4f8ff7" stroke-width="1.5" stroke-dasharray="6,3"/>
  <text x="305" y="165" fill="#4f8ff7" font-size="8" transform="rotate(-68 305 165)">WebSocket</text>

  <!-- Backend → Gemini -->
  <line x1="580" y1="142" x2="630" y2="142" stroke="#34a853" stroke-width="1.5"/>
  <line x1="580" y1="207" x2="630" y2="207" stroke="#34a853" stroke-width="1.5"/>
  <line x1="580" y1="272" x2="630" y2="272" stroke="#34a853" stroke-width="1.5"/>

  <!-- Backend → Firestore/Logging -->
  <line x1="580" y1="340" x2="630" y2="340" stroke="#34a853" stroke-width="1" stroke-dasharray="4,3"/>
</svg>
